<?xml version="1.0" standalone="no"?>
<!DOCTYPE svg PUBLIC "-//W3C//DTD SVG 20010904//EN"
 "http://www.w3.org/TR/2001/REC-SVG-20010904/DTD/svg10.dtd">
<svg version="1.0" xmlns="http://www.w3.org/2000/svg"
 width="182.000000pt" height="182.000000pt" viewBox="0 0 182.000000 182.000000"
 preserveAspectRatio="xMidYMid meet">
<metadata>
Created by potrace 1.14, written by Peter Selinger 2001-2017
</metadata>
<g transform="translate(0.000000,182.000000) scale(0.100000,-0.100000)"
fill="#000000" stroke="none">
<path d="M12 1698 c-17 -17 -17 -1569 0 -1586 17 -17 1779 -17 1796 0 17 17
17 1569 0 1586 -17 17 -1779 17 -1796 0z m455 -140 c46 -46 83 -87 83 -93 0
-5 -37 -47 -82 -92 l-83 -83 -157 0 -158 0 0 175 0 175 157 0 158 0 82 -82z
m420 0 c46 -46 83 -87 83 -93 0 -5 -37 -47 -82 -92 l-83 -83 -57 0 c-32 0 -58
2 -58 5 0 2 34 39 75 82 41 42 75 83 75 90 0 8 -34 47 -75 88 -41 41 -75 77
-75 80 0 3 26 5 57 5 l58 0 82 -82z m420 0 c46 -46 83 -87 83 -93 0 -5 -37
-47 -82 -92 l-83 -83 -57 0 c-32 0 -58 2 -58 5 0 3 34 39 75 80 41 42 75 83
75 91 0 9 -34 49 -75 90 -41 41 -75 76 -75 79 0 3 26 5 57 5 l58 0 82 -82z
m443 -93 l0 -175 -111 0 c-128 0 -126 -8 -21 97 34 34 62 69 62 77 0 9 -28 44
-62 79 -105 105 -107 97 21 97 l111 0 0 -175z"/>
<path d="M174 1536 c-47 -47 -47 -95 0 -142 26 -26 42 -34 71 -34 52 0 105 53
105 105 0 52 -53 105 -105 105 -29 0 -45 -8 -71 -34z"/>
</g>
</svg>
